<svg xmlns="http://www.w3.org/2000/svg" width="205.333" height="153.333" version="1.0" viewBox="0 0 154 115"><path d="M125.4 9.3c-8.9 11-13.6 11.9-32.9 6-1.9-.6-1.9-.6-.2 1.1 1.6 1.7 2.4 4.6 1.1 4.6-.3 0-2.8-2.4-5.6-5.3-4.4-4.5-4.9-4.9-4.4-2.5.3 1.4.9 3.3 1.2 4.2.3.9.1 1.6-.5 1.6s-1.6-1.1-2.1-2.5c-1.3-3.4-4-2.2-4 1.7 0 2.6-.2 2.9-1.5 1.8-.8-.7-1.5-1.8-1.5-2.6 0-.7-.5-1.6-1.1-2-.9-.5-1 .1-.5 2 .8 3.4-.7 3.4-2.3-.2l-1.3-2.7-1.8 4.9c-1.1 2.6-2.6 5.6-3.4 6.5-.9 1-1.6 1.9-1.6 2.2 0 .4 3.8.9 7.3.8h7c4.1.1 5-.2 5.4-1.9.6-2.4 1.6-2.5 3.3-.5 1.7 2.1 3.7 1.9 4.5-.4.4-1.2 1.2-1.8 2.1-1.4.7.3 1.4 0 1.4-.5 0-1.8 6.5-3 13.4-2.5 6.3.6 6.6.7 6.6 3.2s-.2 2.6-5.3 2.3c-4.6-.3-5.8 0-8.6 2.3-3.6 3.1-6.3 7.9-8 14.2-2.7 10.1 6.3 27.9 16.8 33.2 5.1 2.6 13.5 4.2 18.1 3.5 5.5-.9 10.8 1.1 11.7 4.4.8 3.3-2.8 10.2-7.6 14.4-6.3 5.6-27.7 13.6-32.8 12.3-1.4-.3-3.1 0-4 .7-1.2 1-1.7.9-2.4-.5-1.3-2.3-4.6-2.1-5.4.3-.8 2.5-3.7 2.6-13.7.5-8.2-1.8-11.8-3.7-11.8-6.4 0-3 3.7-6.8 9.4-9.5 10.2-4.8 14.1-15.5 11.8-32.3-2.2-16.4-11.1-26-23.3-25.1-6.5.5-9 2.1-11.9 7.8-1.7 3.2-1.9 3.3-2.6 1.5-.4-1.1-1.8-3.7-3.1-5.7-1.3-2.1-2.3-3.9-2.3-4.1 0-.2 2.6-1 5.8-1.7 3.1-.7 7.7-2.3 10.2-3.7 2.5-1.3 3.6-2.1 2.5-1.7-13.1 4.4-13.8 4.5-30.8 4.5L10 36l-1.1 2.7c-1.2 3.1-.4 8.3 1.8 12.6C13 55.8 20 63 24.2 65.1c3.6 1.8 5.1 3.9 2.8 3.9-1.9 0-1 2.9 1.3 4.1 3.2 1.7 3.2 1.8 1.2 3.3-1.8 1.3-1.8 1.4.4 4.5 2.1 2.9 2.2 3.5 1 8-1.2 4.7-1.1 5 1.7 8.9 4.3 5.8 9.6 11.5 13.6 14.5l3.5 2.7 48.5-.2 48.6-.3-3.9-6.4c-2.1-3.6-3.9-7-3.9-7.7 0-.7 2.7-5 5.9-9.6 9.3-12.8 10-18.4 4.1-31.9-3.2-7.2-3.8-13.1-1.8-17.4.9-2.1.9-3.1 0-4.6-.7-1-1.2-2.6-1.2-3.4 0-.8-.5-1.5-1.1-1.5-.6 0-.8-.9-.4-2.2 2.3-7.1-2.7-21.1-8.8-24.9-1.8-1-3.6-1.9-4.2-1.9-.5 0-3.3 2.9-6.1 6.3z"/><path d="M92 69.6c-.6 1.4-1 3-1 3.5 0 1.7-4.1 9.2-7.1 13.1-4 5-2.7 8.4 4.9 12.6 2.5 1.4 4.2.9 4.2-1.3 0-3 7.4-3.4 9-.5 1.4 2.7 2.8 2.5 3.6-.5.3-1.4 1-2.5 1.5-2.5 1.3 0 2.4-7.3 1.1-7.8-.7-.2-1-1.3-.6-2.7.5-1.9-.4-3.4-4.3-7.2-2.6-2.7-5.6-5.9-6.5-7.1-2.3-2.9-3.6-2.8-4.8.4zm1.7 11c-.3.3-1.2.4-1.9.1-.8-.3-.5-.6.6-.6 1.1-.1 1.7.2 1.3.5z"/></svg>